<svg xmlns:xlink="http://www.w3.org/1999/xlink" xmlns="http://www.w3.org/2000/svg" width="100" height="151"><g fill="none" fill-rule="evenodd"><g transform="translate(5 8)"><g fill-rule="nonzero"><path d="M4.53.376h81.686a2 2 0 0 1 2 2v131.248a2 2 0 0 1-2 2H4.529a2 2 0 0 1-2-2V2.376a2 2 0 0 1 2-2z" fill="#FFF"/><path d="M4.018 1.75C2.202 1.75.75 3.169.75 4.924v127.152c0 1.755 1.452 3.174 3.268 3.174h81.964c1.816 0 3.268-1.419 3.268-3.174V4.924c0-1.755-1.452-3.174-3.268-3.174H4.018z" stroke="#000" stroke-width="1.5"/><g fill="#000"><path d="M23.853 15.896h1.522c.61.007 1.124.205 1.544.594.419.388.637.925.655 1.61a1.84 1.84 0 0 1-.761 1.463c-.486.37-1.078.561-1.776.572-1.265-.064-2.202-.318-2.811-.763-.61-.445-.913-.7-.91-.763l-1.521 1.865c.031.078.517.389 1.458.933.94.544 2.146.854 3.615.932 1.617-.063 2.864-.53 3.742-1.399.877-.869 1.321-1.759 1.332-2.67-.036-.896-.284-1.591-.746-2.085-.461-.494-.923-.837-1.384-1.03-.461-.192-.71-.285-.745-.276.029.01.233-.066.613-.226s.76-.462 1.14-.904c.38-.443.585-1.084.614-1.922-.014-1.046-.408-1.922-1.184-2.628-.775-.707-1.846-1.074-3.213-1.102-1.378.063-2.493.318-3.346.763-.853.445-1.291.7-1.317.763l1.28 1.986c-.006-.055.262-.273.804-.654.543-.382 1.402-.6 2.58-.654.905.046 1.504.293 1.796.742.292.448.426.823.402 1.123.007.293-.134.64-.423 1.039-.289.399-.768.618-1.438.657h-1.522v2.034zM37.857 8.097c-1.857.051-3.24.748-4.149 2.089-.909 1.341-1.362 3.019-1.359 5.032-.003 2.013.45 3.69 1.359 5.032.909 1.341 2.292 2.038 4.15 2.09 1.857-.052 3.24-.749 4.149-2.09.909-1.341 1.362-3.019 1.359-5.032.003-2.013-.45-3.69-1.36-5.032-.908-1.341-2.291-2.038-4.149-2.09zm0 2.204c.948.014 1.716.452 2.305 1.314.588.862.891 2.063.909 3.603-.018 1.54-.321 2.741-.91 3.603-.588.862-1.356 1.3-2.304 1.314-.947-.014-1.715-.452-2.304-1.314-.588-.862-.891-2.063-.909-3.603.018-1.54.32-2.741.91-3.603.588-.862 1.356-1.3 2.303-1.314zM46.466 22h2.367v-6.104h5.074V22h2.367V8.436h-2.367v5.425h-5.074V8.436h-2.367zM63.529 17.253l1.691-5.765 1.691 5.765H63.53zm.338-8.817L59.47 22h2.537l.845-2.713h4.736L68.433 22h2.537L66.573 8.436h-2.706z"/></g><path d="M44.294 29.744c-18.843 0-34.118 15.314-34.118 34.205 0 18.89 15.275 34.205 34.118 34.205 18.843 0 34.118-15.314 34.118-34.205S63.137 29.744 44.294 29.744zm0 5.783c15.657 0 28.35 12.725 28.35 28.422 0 15.697-12.693 28.422-28.35 28.422-15.657 0-28.35-12.725-28.35-28.422 0-15.697 12.693-28.422 28.35-28.422z" fill="red"/></g><ellipse fill="#67A150" cx="44" cy="117" rx="24" ry="13"/><ellipse fill="#FFF" cx="44" cy="117" rx="20" ry="10"/><path d="M49.064 120.885h-1.923V124h-2.237v-3.115h-6.523v-1.768l6.523-9.433h2.237v9.296h1.923v1.905zm-4.16-1.905v-3.584c0-1.276.033-2.32.098-3.134h-.078c-.182.43-.469.95-.86 1.562l-3.544 5.156h4.384z" fill="#181818"/><path d="M27.533 58.284c-.707 0-1.37.351-1.766.938l-3.34 4.95a2.129 2.129 0 0 0-.362 1.19v6.548c0 1.175.953 2.129 2.129 2.129h1.922a4.47 4.47 0 0 1 8.929 0h16.62a4.468 4.468 0 0 1 2.561-3.833H35.69v-9.793a2.129 2.129 0 0 0-2.129-2.13h-6.028zm.114 1.277h4.85c.588 0 1.064.477 1.064 1.065v2.98c0 .588-.476 1.065-1.064 1.065h-6.863a1.065 1.065 0 0 1-.882-1.66l2.01-2.98c.198-.294.53-.47.885-.47z" fill="#000" fill-rule="nonzero"/><path d="M39.097 51.897c-1.18 0-2.13.95-2.13 2.129V68.929h27.678V54.026c0-1.18-.95-2.13-2.129-2.13h-23.42zM56.129 70.632a3.62 3.62 0 1 0 0 7.239 3.62 3.62 0 0 0 0-7.239zm0 1.703a1.916 1.916 0 1 1 0 3.833 1.916 1.916 0 0 1 0-3.833zM60.593 74.039a4.468 4.468 0 0 0-2.561-3.833h6.613v3.833h-4.052zM30.58 70.632a3.62 3.62 0 1 0 0 7.239 3.62 3.62 0 0 0 0-7.239zm0 1.703a1.916 1.916 0 1 1 0 3.833 1.916 1.916 0 0 1 0-3.833z" fill="#000" fill-rule="nonzero"/><path d="M47.992 55.876c.948 0 1.698.218 2.25.653.55.435.826 1.017.826 1.746 0 1.026-.615 1.842-1.845 2.448.784.392 1.34.804 1.671 1.237.33.433.496.916.496 1.45 0 .824-.303 1.485-.91 1.982-.606.496-1.426.745-2.46.745-1.085 0-1.926-.233-2.523-.698-.597-.464-.895-1.123-.895-1.975 0-.556.156-1.056.468-1.5.312-.445.824-.84 1.534-1.187-.61-.364-1.045-.75-1.305-1.155a2.481 2.481 0 0 1-.39-1.367c0-.725.285-1.302.855-1.733.57-.43 1.312-.646 2.228-.646zm-1.852 7.533c0 .474.166.842.499 1.104.332.262.784.393 1.353.393.588 0 1.045-.135 1.37-.406.327-.272.49-.64.49-1.104 0-.37-.15-.707-.452-1.012-.3-.306-.756-.588-1.367-.848l-.198-.089c-.602.265-1.035.555-1.299.872-.264.317-.396.68-.396 1.09zm1.839-6.296c-.456 0-.823.113-1.101.339-.278.225-.417.532-.417.92 0 .236.05.448.15.635.1.187.246.356.438.51.191.152.515.335.97.55.547-.242.934-.496 1.16-.763a1.4 1.4 0 0 0 .338-.933c0-.387-.14-.694-.42-.92-.281-.225-.654-.338-1.118-.338zM58.829 58.439v1.258h-2.461V66h-1.613v-6.303h-2.461v-1.258z" fill="#FFF"/></g></g></svg>