<svg xmlns:xlink="http://www.w3.org/1999/xlink" xmlns="http://www.w3.org/2000/svg" width="115" height="151"><g transform="translate(14 8)" fill="none" fill-rule="evenodd"><g fill-rule="nonzero"><path d="M4.53.376h81.686a2 2 0 0 1 2 2v131.248a2 2 0 0 1-2 2H4.529a2 2 0 0 1-2-2V2.376a2 2 0 0 1 2-2z" fill="#FFF"/><path d="M4.018 1.75C2.202 1.75.75 3.169.75 4.924v127.152c0 1.755 1.452 3.174 3.268 3.174h81.964c1.816 0 3.268-1.419 3.268-3.174V4.924c0-1.755-1.452-3.174-3.268-3.174H4.018z" stroke="#000" stroke-width="1.5"/><g fill="#000"><path d="M23.853 15.896h1.522c.61.007 1.124.205 1.544.594.419.388.637.925.655 1.61a1.84 1.84 0 0 1-.761 1.463c-.486.37-1.078.561-1.776.572-1.265-.064-2.202-.318-2.811-.763-.61-.445-.913-.7-.91-.763l-1.521 1.865c.031.078.517.389 1.458.933.94.544 2.146.854 3.615.932 1.617-.063 2.864-.53 3.742-1.399.877-.869 1.321-1.759 1.332-2.67-.036-.896-.284-1.591-.746-2.085-.461-.494-.923-.837-1.384-1.03-.461-.192-.71-.285-.745-.276.029.01.233-.066.613-.226s.76-.462 1.14-.904c.38-.443.585-1.084.614-1.922-.014-1.046-.408-1.922-1.184-2.628-.775-.707-1.846-1.074-3.213-1.102-1.378.063-2.493.318-3.346.763-.853.445-1.291.7-1.317.763l1.28 1.986c-.006-.055.262-.273.804-.654.543-.382 1.402-.6 2.58-.654.905.046 1.504.293 1.796.742.292.448.426.823.402 1.123.007.293-.134.64-.423 1.039-.289.399-.768.618-1.438.657h-1.522v2.034zM37.857 8.097c-1.857.051-3.24.748-4.149 2.089-.909 1.341-1.362 3.019-1.359 5.032-.003 2.013.45 3.69 1.359 5.032.909 1.341 2.292 2.038 4.15 2.09 1.857-.052 3.24-.749 4.149-2.09.909-1.341 1.362-3.019 1.359-5.032.003-2.013-.45-3.69-1.36-5.032-.908-1.341-2.291-2.038-4.149-2.09zm0 2.204c.948.014 1.716.452 2.305 1.314.588.862.891 2.063.909 3.603-.018 1.54-.321 2.741-.91 3.603-.588.862-1.356 1.3-2.304 1.314-.947-.014-1.715-.452-2.304-1.314-.588-.862-.891-2.063-.909-3.603.018-1.54.32-2.741.91-3.603.588-.862 1.356-1.3 2.303-1.314zM46.466 22h2.367v-6.104h5.074V22h2.367V8.436h-2.367v5.425h-5.074V8.436h-2.367zM63.529 17.253l1.691-5.765 1.691 5.765H63.53zm.338-8.817L59.47 22h2.537l.845-2.713h4.736L68.433 22h2.537L66.573 8.436h-2.706z"/></g><path d="M44.294 29.744c-18.843 0-34.118 15.314-34.118 34.205 0 18.89 15.275 34.205 34.118 34.205 18.843 0 34.118-15.314 34.118-34.205S63.137 29.744 44.294 29.744zm0 5.783c15.657 0 28.35 12.725 28.35 28.422 0 15.697-12.693 28.422-28.35 28.422-15.657 0-28.35-12.725-28.35-28.422 0-15.697 12.693-28.422 28.35-28.422z" fill="red"/></g><path d="M34.066 46c-.87 0-1.798.662-2.082 1.484l-1.05 3.048-2.18 6.314c-.001.006 0 .012-.003.018l-.507 1.47A2.238 2.238 0 0 0 26 60.574v8.968a2.241 2.241 0 0 0 2.244 2.244h33.631a2.241 2.241 0 0 0 2.245-2.244v-8.967a2.238 2.238 0 0 0-2.245-2.241l-.506-1.47-.004-.018-2.18-6.314-1.05-3.048c-.283-.822-1.211-1.484-2.08-1.484H34.065zm.684 2.244h20.62c.435 0 .897.332 1.039.743l3.226 9.347h-29.15l3.226-9.347c.142-.411.604-.743 1.039-.743zm23.762 12.218a3.363 3.363 0 1 1 0 6.726 3.363 3.363 0 0 1 0-6.726zm-26.904.113a3.363 3.363 0 1 1 0 6.726 3.363 3.363 0 0 1 0-6.726zM28 73v4.484a3.363 3.363 0 0 0 6.726 0V73H28zM55 73v4.484a3.363 3.363 0 0 0 6.726 0V73H55z" fill="#000" fill-rule="nonzero"/><ellipse fill="#67A150" cx="44" cy="117" rx="24" ry="13"/><ellipse fill="#FFF" cx="44" cy="117" rx="20" ry="10"/><path d="M49.064 120.885h-1.923V124h-2.237v-3.115h-6.523v-1.768l6.523-9.433h2.237v9.296h1.923v1.905zm-4.16-1.905v-3.584c0-1.276.033-2.32.098-3.134h-.078c-.182.43-.469.95-.86 1.562l-3.544 5.156h4.384z" fill="#181818"/></g></svg>