<svg xmlns:xlink="http://www.w3.org/1999/xlink" xmlns="http://www.w3.org/2000/svg" width="100" height="151"><g fill="none" fill-rule="evenodd"><g fill-rule="nonzero"><path d="M7.373 5.376h83.843a2 2 0 0 1 2 2v131.248a2 2 0 0 1-2 2H7.373a2 2 0 0 1-2-2V7.376a2 2 0 0 1 2-2z" fill="#FFF"/><path d="M9.39 6.126a3.256 3.256 0 0 0-3.267 3.262v129.976a3.256 3.256 0 0 0 3.267 3.262h81.965a3.256 3.256 0 0 0 3.268-3.262V9.388a3.256 3.256 0 0 0-3.268-3.262H9.39z" stroke="#000" stroke-width="1.5"/><g fill="#000"><path d="M28.853 20.896h1.522c.61.007 1.124.205 1.544.594.419.388.637.925.655 1.61a1.84 1.84 0 0 1-.761 1.463c-.486.37-1.078.561-1.776.572-1.265-.064-2.202-.318-2.811-.763-.61-.445-.913-.7-.91-.763l-1.521 1.865c.031.078.517.389 1.458.933.94.544 2.146.854 3.615.932 1.617-.063 2.864-.53 3.742-1.399.877-.869 1.321-1.759 1.332-2.67-.036-.896-.284-1.591-.746-2.085-.461-.494-.923-.837-1.384-1.03-.461-.192-.71-.285-.745-.276.029.01.233-.066.613-.226s.76-.462 1.14-.904c.38-.443.585-1.084.614-1.922-.014-1.046-.408-1.922-1.184-2.628-.775-.707-1.846-1.074-3.213-1.102-1.378.063-2.493.318-3.346.763-.853.445-1.291.7-1.317.763l1.28 1.986c-.006-.055.262-.273.804-.654.543-.382 1.402-.6 2.58-.654.905.046 1.504.293 1.796.742.292.448.426.823.402 1.123.007.293-.134.64-.423 1.039-.289.399-.768.618-1.438.657h-1.522v2.034zM42.857 13.097c-1.857.051-3.24.748-4.149 2.089-.909 1.341-1.362 3.019-1.359 5.032-.003 2.013.45 3.69 1.359 5.032.909 1.341 2.292 2.038 4.15 2.09 1.857-.052 3.24-.749 4.149-2.09.909-1.341 1.362-3.019 1.359-5.032.003-2.013-.45-3.69-1.36-5.032-.908-1.341-2.291-2.038-4.149-2.09zm0 2.204c.948.014 1.716.452 2.305 1.314.588.862.891 2.063.909 3.603-.018 1.54-.321 2.741-.91 3.603-.588.862-1.356 1.3-2.304 1.314-.947-.014-1.715-.452-2.304-1.314-.588-.862-.891-2.063-.909-3.603.018-1.54.32-2.741.91-3.603.588-.862 1.356-1.3 2.303-1.314zM51.466 27h2.367v-6.104h5.074V27h2.367V13.436h-2.367v5.425h-5.074v-5.425h-2.367zM68.529 22.253l1.691-5.765 1.691 5.765H68.53zm.338-8.817L64.47 27h2.537l.845-2.713h4.736L73.433 27h2.537l-4.397-13.564h-2.706z"/></g></g><g transform="translate(17 41)"><circle fill="#FFF" fill-rule="nonzero" cx="34" cy="34" r="34"/><circle stroke="#000" cx="34" cy="34" r="34.403"/><circle fill="#0D69E1" fill-rule="nonzero" cx="34.073" cy="33.927" r="32.757"/><path d="M36.268 40.557c.176.134.39.206.611.206h4.9a8.966 8.966 0 1 0 4.86-9.246l-3.314-4.733.87-2.047h.525a1.345 1.345 0 1 0 0-2.69h-6.164a1.345 1.345 0 1 0 0 2.69h3.934l-.524 1.232H26.511a3.028 3.028 0 0 0-1.422-3.425l-.591-.337a1.345 1.345 0 0 1 .666-2.514h4.427a.897.897 0 0 0 0-1.793h-4.427a3.138 3.138 0 0 0-1.553 5.865l.59.337a1.233 1.233 0 0 1 .508 1.592l-2.812 6.03a8.966 8.966 0 1 0 1.487 1.053l.7-1.502 12.184 9.282zM17.487 47.15a7.62 7.62 0 1 1 3.84-14.204l-1.947 4.174c-.116.25-.307.458-.546.596l-1.796 1.037a.897.897 0 0 0 .897 1.553l1.796-1.037a3.138 3.138 0 0 0 1.275-1.391l1.782-3.823a7.621 7.621 0 0 1-5.301 13.095zm33.173 0a7.62 7.62 0 0 1-7.52-6.388h7.742a1.233 1.233 0 0 0 1.01-1.94l-4.368-6.238A7.62 7.62 0 0 1 58.28 39.53a7.62 7.62 0 0 1-7.62 7.621zm-7.58-8.405a7.621 7.621 0 0 1 2.73-5.093l3.565 5.093H43.08zm-4.345 0l4.067-9.583 2.322 3.315a8.966 8.966 0 0 0-3.395 6.268h-2.994zm-2.027-.39l-11.551-8.8.8-1.57H41.11l-4.402 10.37z" fill="#FFF" fill-rule="nonzero"/></g></g></svg>