<svg xmlns:xlink="http://www.w3.org/1999/xlink" xmlns="http://www.w3.org/2000/svg" width="115" height="151"><g transform="translate(13 7)" fill="none" fill-rule="evenodd"><g fill-rule="nonzero"><path d="M4.53 1.376h81.686a2 2 0 0 1 2 2v131.248a2 2 0 0 1-2 2H4.529a2 2 0 0 1-2-2V3.376a2 2 0 0 1 2-2z" fill="#FFF"/><g fill="#000"><path d="M23.853 16.896h1.522c.61.007 1.124.205 1.544.594.419.388.637.925.655 1.61a1.84 1.84 0 0 1-.761 1.463c-.486.37-1.078.561-1.776.572-1.265-.064-2.202-.318-2.811-.763-.61-.445-.913-.7-.91-.763l-1.521 1.865c.031.078.517.389 1.458.933.94.544 2.146.854 3.615.932 1.617-.063 2.864-.53 3.742-1.399.877-.869 1.321-1.759 1.332-2.67-.036-.896-.284-1.591-.746-2.085-.461-.494-.923-.837-1.384-1.03-.461-.192-.71-.285-.745-.276.029.01.233-.066.613-.226s.76-.462 1.14-.904c.38-.443.585-1.084.614-1.922-.014-1.046-.408-1.922-1.184-2.628-.775-.707-1.846-1.074-3.213-1.102-1.378.063-2.493.318-3.346.763-.853.445-1.291.7-1.317.763l1.28 1.986c-.006-.055.262-.273.804-.654.543-.382 1.402-.6 2.58-.654.905.046 1.504.293 1.796.742.292.448.426.823.402 1.123.007.293-.134.64-.423 1.039-.289.399-.768.618-1.438.657h-1.522v2.034zM37.857 9.097c-1.857.051-3.24.748-4.149 2.089-.909 1.341-1.362 3.019-1.359 5.032-.003 2.013.45 3.69 1.359 5.032.909 1.341 2.292 2.038 4.15 2.09 1.857-.052 3.24-.749 4.149-2.09.909-1.341 1.362-3.019 1.359-5.032.003-2.013-.45-3.69-1.36-5.032-.908-1.341-2.291-2.038-4.149-2.09zm0 2.204c.948.014 1.716.452 2.305 1.314.588.862.891 2.063.909 3.603-.018 1.54-.321 2.741-.91 3.603-.588.862-1.356 1.3-2.304 1.314-.947-.014-1.715-.452-2.304-1.314-.588-.862-.891-2.063-.909-3.603.018-1.54.32-2.741.91-3.603.588-.862 1.356-1.3 2.303-1.314zM46.466 23h2.367v-6.104h5.074V23h2.367V9.436h-2.367v5.425h-5.074V9.436h-2.367zM63.529 18.253l1.691-5.765 1.691 5.765H63.53zm.338-8.817L59.47 23h2.537l.845-2.713h4.736L68.433 23h2.537L66.573 9.436h-2.706z"/></g><path d="M44.294 30.744c-18.843 0-34.118 15.314-34.118 34.205 0 18.89 15.275 34.205 34.118 34.205 18.843 0 34.118-15.314 34.118-34.205S63.137 30.744 44.294 30.744zm0 5.783c15.657 0 28.35 12.725 28.35 28.422 0 15.697-12.693 28.422-28.35 28.422-15.657 0-28.35-12.725-28.35-28.422 0-15.697 12.693-28.422 28.35-28.422z" fill="#6B6B6B"/></g><path d="M34.04 47c-.867 0-1.792.668-2.075 1.497L30.92 51.57l-2.173 6.366-.003.018-.506 1.482A2.244 2.244 0 0 0 26 61.696v9.04C26 71.99 27 73 28.237 73h33.526A2.247 2.247 0 0 0 64 70.737v-9.042c0-1.252-1-2.259-2.237-2.259l-.506-1.482-.003-.018-2.173-6.366-1.046-3.073C57.752 47.667 56.827 47 55.96 47H34.04zm.682 2.263h20.556c.433 0 .894.334 1.035.748l3.216 9.425H30.47l3.216-9.425c.14-.414.602-.748 1.035-.748zm23.688 12.32c1.852 0 3.353 1.517 3.353 3.39 0 1.873-1.501 3.391-3.353 3.391-1.852 0-3.352-1.518-3.352-3.39 0-1.874 1.5-3.392 3.352-3.392zm-26.82.112c1.852 0 3.352 1.519 3.352 3.391 0 1.873-1.5 3.391-3.352 3.391-1.852 0-3.353-1.518-3.353-3.39 0-1.873 1.501-3.392 3.353-3.392zM28 74v4.571C28 80.465 29.567 82 31.5 82s3.5-1.535 3.5-3.429V74h-7zM55 74v4.571C55 80.465 56.567 82 58.5 82s3.5-1.535 3.5-3.429V74h-7z" fill="#353535" fill-rule="nonzero"/><ellipse fill="#67A150" cx="44" cy="118" rx="24" ry="13"/><ellipse fill="#FFF" cx="44" cy="118" rx="20" ry="10"/><path d="M49 121.954h-1.98V125h-2.303v-3.046H38v-1.729L44.717 111h2.302v9.091H49v1.863zm-4.283-1.863v-3.504c0-1.248.033-2.27.1-3.066h-.08c-.188.42-.483.93-.885 1.528l-3.65 5.042h4.515z" fill="#181818"/><path d="M3.922 0C1.749 0 0 1.771 0 3.972v128.684c0 2.2 1.749 3.971 3.922 3.971h80c2.172 0 3.921-1.77 3.921-3.971V3.972c0-2.2-1.749-3.972-3.921-3.972h-80zm0 1.589h80c1.22 0 2.22.932 2.343 2.134L1.569 99.705V3.972c0-1.32 1.049-2.383 2.353-2.383zm82.353 5.545v4.022L1.569 107.152v-4.021L86.275 7.134zm0 7.447v4.022L1.569 114.599v-4.021L86.275 14.58zm0 7.447v4.022L1.569 122.046v-4.021l84.706-95.997zm0 7.447v4.022L1.569 129.493v-4.021l84.706-95.997zm0 7.447v95.734c0 1.32-1.05 2.383-2.353 2.383h-80c-1.22 0-2.221-.933-2.344-2.135l84.697-95.982z" fill="#000" fill-rule="nonzero"/></g></svg>