<svg xmlns:xlink="http://www.w3.org/1999/xlink" xmlns="http://www.w3.org/2000/svg" width="115" height="151"><g fill="none" fill-rule="evenodd"><path d="M15.373 7.373h83.843a2 2 0 0 1 2 2v130.902a2 2 0 0 1-2 2H15.373a2 2 0 0 1-2-2V9.373a2 2 0 0 1 2-2z" fill="#FFF" fill-rule="nonzero"/><g fill="#000" fill-rule="nonzero"><path d="M36.853 22.853h1.522c.61.007 1.124.204 1.544.592.419.387.637.923.655 1.606-.021.603-.275 1.09-.761 1.46-.486.369-1.078.56-1.776.57-1.265-.064-2.202-.317-2.811-.761-.61-.444-.913-.698-.91-.761l-1.521 1.86c.031.078.517.388 1.458.93.94.543 2.146.853 3.615.93 1.617-.063 2.864-.528 3.742-1.395.877-.867 1.321-1.754 1.332-2.663-.036-.894-.284-1.587-.746-2.08-.461-.493-.923-.835-1.384-1.027-.461-.192-.71-.284-.745-.276.029.01.233-.066.613-.225.38-.16.76-.46 1.14-.902.38-.442.585-1.08.614-1.917-.014-1.043-.408-1.917-1.184-2.621-.775-.705-1.846-1.071-3.213-1.1-1.378.064-2.493.318-3.346.762-.853.444-1.291.697-1.317.76l1.28 1.982c-.006-.055.262-.272.804-.653.543-.38 1.402-.598 2.58-.652.905.046 1.504.293 1.796.74.292.447.426.82.402 1.12.007.293-.134.638-.423 1.036s-.768.617-1.438.656h-1.522v2.029zM50.857 15.074c-1.857.05-3.24.745-4.149 2.083-.909 1.338-1.362 3.011-1.359 5.02-.003 2.008.45 3.68 1.359 5.019.909 1.337 2.292 2.032 4.15 2.083 1.857-.05 3.24-.746 4.149-2.083.909-1.338 1.362-3.011 1.359-5.02.003-2.008-.45-3.68-1.36-5.019-.908-1.338-2.291-2.032-4.149-2.083zm0 2.198c.948.014 1.716.451 2.305 1.31.588.86.891 2.058.909 3.594-.018 1.537-.321 2.735-.91 3.594-.588.86-1.356 1.297-2.304 1.31-.947-.013-1.715-.45-2.304-1.31-.588-.86-.891-2.057-.909-3.594.018-1.536.32-2.734.91-3.593.588-.86 1.356-1.297 2.303-1.31zM59.466 28.941h2.367v-6.088h5.074v6.088h2.367V15.412h-2.367v5.412h-5.074v-5.412h-2.367zM76.529 24.206l1.691-5.75 1.691 5.75H76.53zm.338-8.794l-4.397 13.53h2.537l.845-2.707h4.736l.845 2.706h2.537l-4.397-13.53h-2.706z"/></g><g fill="#000" fill-rule="nonzero"><path d="M36.853 22.853h1.522c.61.007 1.124.204 1.544.592.419.387.637.923.655 1.606-.021.603-.275 1.09-.761 1.46-.486.369-1.078.56-1.776.57-1.265-.064-2.202-.317-2.811-.761-.61-.444-.913-.698-.91-.761l-1.521 1.86c.031.078.517.388 1.458.93.94.543 2.146.853 3.615.93 1.617-.063 2.864-.528 3.742-1.395.877-.867 1.321-1.754 1.332-2.663-.036-.894-.284-1.587-.746-2.08-.461-.493-.923-.835-1.384-1.027-.461-.192-.71-.284-.745-.276.029.01.233-.066.613-.225.38-.16.76-.46 1.14-.902.38-.442.585-1.08.614-1.917-.014-1.043-.408-1.917-1.184-2.621-.775-.705-1.846-1.071-3.213-1.1-1.378.064-2.493.318-3.346.762-.853.444-1.291.697-1.317.76l1.28 1.982c-.006-.055.262-.272.804-.653.543-.38 1.402-.598 2.58-.652.905.046 1.504.293 1.796.74.292.447.426.82.402 1.12.007.293-.134.638-.423 1.036s-.768.617-1.438.656h-1.522v2.029zM50.857 15.074c-1.857.05-3.24.745-4.149 2.083-.909 1.338-1.362 3.011-1.359 5.02-.003 2.008.45 3.68 1.359 5.019.909 1.337 2.292 2.032 4.15 2.083 1.857-.05 3.24-.746 4.149-2.083.909-1.338 1.362-3.011 1.359-5.02.003-2.008-.45-3.68-1.36-5.019-.908-1.338-2.291-2.032-4.149-2.083zm0 2.198c.948.014 1.716.451 2.305 1.31.588.86.891 2.058.909 3.594-.018 1.537-.321 2.735-.91 3.594-.588.86-1.356 1.297-2.304 1.31-.947-.013-1.715-.45-2.304-1.31-.588-.86-.891-2.057-.909-3.594.018-1.536.32-2.734.91-3.593.588-.86 1.356-1.297 2.303-1.31zM59.466 28.941h2.367v-6.088h5.074v6.088h2.367V15.412h-2.367v5.412h-5.074v-5.412h-2.367zM76.529 24.206l1.691-5.75 1.691 5.75H76.53zm.338-8.794l-4.397 13.53h2.537l.845-2.707h4.736l.845 2.706h2.537l-4.397-13.53h-2.706z"/></g><g transform="translate(24 41)"><circle fill="#FFF" fill-rule="nonzero" cx="34" cy="34" r="34"/><circle stroke="#7F7F7F" stroke-width="2" cx="34" cy="34" r="34.903"/><circle fill="#7F7F7F" fill-rule="nonzero" cx="34.073" cy="33.927" r="32.757"/><path d="M36.268 40.557c.176.134.39.206.611.206h4.9a8.966 8.966 0 1 0 4.86-9.246l-3.314-4.733.87-2.047h.525a1.345 1.345 0 1 0 0-2.69h-6.164a1.345 1.345 0 1 0 0 2.69h3.934l-.524 1.232H26.511a3.028 3.028 0 0 0-1.422-3.425l-.591-.337a1.345 1.345 0 0 1 .666-2.514h4.427a.897.897 0 0 0 0-1.793h-4.427a3.138 3.138 0 0 0-1.553 5.865l.59.337a1.233 1.233 0 0 1 .508 1.592l-2.812 6.03a8.966 8.966 0 1 0 1.487 1.053l.7-1.502 12.184 9.282zM17.487 47.15a7.62 7.62 0 1 1 3.84-14.204l-1.947 4.174c-.116.25-.307.458-.546.596l-1.796 1.037a.897.897 0 0 0 .897 1.553l1.796-1.037a3.138 3.138 0 0 0 1.275-1.391l1.782-3.823a7.621 7.621 0 0 1-5.301 13.095zm33.173 0a7.62 7.62 0 0 1-7.52-6.388h7.742a1.233 1.233 0 0 0 1.01-1.94l-4.368-6.238A7.62 7.62 0 0 1 58.28 39.53a7.62 7.62 0 0 1-7.62 7.621zm-7.58-8.405a7.621 7.621 0 0 1 2.73-5.093l3.565 5.093H43.08zm-4.345 0l4.067-9.583 2.322 3.315a8.966 8.966 0 0 0-3.395 6.268h-2.994zm-2.027-.39l-11.551-8.8.8-1.57H41.11l-4.402 10.37z" fill="#FFF" fill-rule="nonzero"/></g><path d="M17.294 7.373c-2.172 0-3.921 1.77-3.921 3.971v128.684c0 2.2 1.749 3.972 3.921 3.972h80c2.173 0 3.922-1.771 3.922-3.972V11.344c0-2.2-1.75-3.971-3.922-3.971h-80zm0 1.588h80c1.22 0 2.221.933 2.343 2.135l-84.696 95.982V11.344c0-1.32 1.05-2.383 2.353-2.383zm82.353 5.546v4.021l-84.706 95.997v-4.022l84.706-95.996zm0 7.447v4.021l-84.706 95.997v-4.022l84.706-95.996zm0 7.447v4.021L14.941 129.42v-4.022l84.706-95.996zm0 7.447v4.021l-84.706 95.997v-4.022l84.706-95.996zm0 7.447v95.733c0 1.32-1.05 2.383-2.353 2.383h-80c-1.22 0-2.22-.932-2.343-2.134l84.696-95.982z" fill="#000" fill-rule="nonzero"/></g></svg>