<svg xmlns:xlink="http://www.w3.org/1999/xlink" xmlns="http://www.w3.org/2000/svg" width="115" height="71"><g fill="none" fill-rule="evenodd"><g transform="translate(8 11)" fill-rule="nonzero"><path d="M6.3.166h87.4a6.3 6.3 0 0 1 6.3 6.3v37.068a6.3 6.3 0 0 1-6.3 6.3H6.3a6.3 6.3 0 0 1-6.3-6.3V6.466a6.3 6.3 0 0 1 6.3-6.3z" fill="#000"/><rect fill="#FFF" x="1.667" y="1.821" width="96.667" height="46.358" rx="4.9"/></g><path d="M69.793 36.004c0 4.713-1.28 8.317-3.838 10.81-2.559 2.494-6.24 3.74-11.045 3.74H47V22h8.75c4.44 0 7.89 1.23 10.352 3.691 2.46 2.461 3.691 5.899 3.691 10.313zm-3.516.117c0-3.724-.934-6.53-2.802-8.418-1.869-1.888-4.646-2.832-8.33-2.832H50.32v22.813h4.043c3.959 0 6.934-.974 8.926-2.92 1.992-1.947 2.988-4.828 2.988-8.643z" fill="#0E0E0E"/></g></svg>