<svg xmlns:xlink="http://www.w3.org/1999/xlink" xmlns="http://www.w3.org/2000/svg" id="_Слой_1" width="110" height="79.8" viewBox="0 0 110 79.8"><defs><style>.cls-1{fill:none;}.cls-2{fill:#fff;}.cls-3{fill:#8b8b8b;}</style></defs><g><g><g><path d="M11.4,6H98.8c3.5,0,6.3,2.8,6.3,6.3h0V49.4c0,3.5-2.8,6.3-6.3,6.3H11.4c-3.5,0-6.3-2.8-6.3-6.3V12.3c0-3.5,2.8-6.3,6.3-6.3Z"/><path class="cls-2" d="M11.7,7.6H98.6c2.7,0,4.9,2.2,4.9,4.9V49.1c0,2.7-2.2,4.9-4.9,4.9H11.7c-2.7,0-4.9-2.2-4.9-4.9V12.5c0-2.7,2.1-4.9,4.9-4.9Z"/></g><g><rect x="46" y="45.1" width="14.4" height="2"/><path d="M65.4,42.5l-3.1-17.8h0c1.1-.2,2.1,.5,2.3,1.6l2.8,15.8-2,.4Z"/><rect x="57.01" y="40.9" width="11" height="2" transform="translate(-6.63 71.62) rotate(-57.1)"/><circle cx="42.4" cy="46" r="4.2"/><circle cx="67.1" cy="46" r="4.2"/><path d="M48.7,46.1c-.5,0-.9-.3-1-.8-.9-4.4-5.2-4.5-5.4-4.5-.6,0-1-.5-1-1,0-.6,.5-1,1-1h0c2.1,0,6.3,1.3,7.3,6.1,.1,.6-.2,1.1-.8,1.2,.1,0,0,0-.1,0Z"/><path d="M53.4,45.2h0c-1.1,0-1.9-.9-1.9-1.9v-11.5c0-1.1,.9-1.9,1.9-1.9h0c1.1,0,1.9,.9,1.9,1.9v11.5c0,1.1-.9,1.9-1.9,1.9Z"/><path d="M53.5,32.6h0c-2.1,0-3.7-1.7-3.7-3.7v-5.6c0-2.1,1.7-3.7,3.7-3.7h0c2.1,0,3.7,1.7,3.7,3.7v5.6c0,2-1.6,3.7-3.7,3.7Z"/><rect x="57.2" y="24.8" width="6.7" height="2.7"/><path d="M62.8,27.5h-2c-.9,0-1.6-.7-1.6-1.6h0c0-.9,.7-1.6,1.6-1.6h2c.9,0,1.6,.7,1.6,1.6h0c0,.9-.7,1.6-1.6,1.6Z"/><circle cx="53.3" cy="15" r="3.8"/><path class="cls-2" d="M57.2,27.7h-1.1l-3.7-3.7,.2-.2,3.7,3.7h1v.2h-.1Z"/><path class="cls-2" d="M57.2,24.8h-.9l-2.6-2.8,.2-.2,2.6,2.7h.8v.3h-.1Z"/></g></g><rect class="cls-1" width="110" height="79.8"/></g><g><path class="cls-3" d="M41,75.24c-.43,0-.83-.06-1.18-.19s-.66-.31-.91-.56c-.25-.23-.43-.51-.56-.83s-.19-.66-.19-1.02c0-.47,.13-.91,.38-1.3s.62-.71,1.1-.95v-.04c-.43-.25-.75-.52-.96-.82s-.31-.67-.31-1.11c0-.66,.25-1.2,.74-1.64s1.12-.66,1.89-.66,1.43,.21,1.91,.62,.72,.95,.72,1.6c0,.39-.11,.78-.34,1.16s-.56,.68-.99,.9v.04c.51,.24,.89,.53,1.15,.87s.39,.78,.39,1.31c0,.75-.27,1.37-.81,1.88s-1.22,.76-2.03,.76Zm1.64-2.52c0-.36-.07-.64-.21-.86s-.41-.43-.81-.64c-.13-.07-.31-.15-.53-.24s-.47-.19-.75-.3c-.32,.21-.57,.48-.74,.79s-.26,.67-.26,1.08c0,.53,.16,.96,.48,1.31s.72,.52,1.2,.52,.89-.15,1.18-.44,.45-.7,.45-1.2Zm-.16-4.37c0-.39-.13-.72-.39-.98s-.62-.39-1.09-.39c-.43,0-.77,.12-1.05,.35s-.41,.55-.41,.95c0,.29,.07,.53,.21,.73s.35,.38,.62,.54c.12,.07,.31,.16,.55,.28s.47,.21,.68,.28c.34-.26,.57-.53,.69-.81s.18-.59,.18-.95Z"/><path class="cls-3" d="M46.79,75.04h-1.4v-1.67h1.4v1.67Z"/><path class="cls-3" d="M54.16,72.04h-1.04v3h-1.13v-3h-3.86v-1.23l3.9-4.49h1.08v4.79h1.04v.94Zm-2.16-.94v-3.41l-2.94,3.41h2.94Z"/><path class="cls-3" d="M56.86,75.04h-1.4v-1.67h1.4v1.67Z"/><path class="cls-3" d="M63.81,67.62l-3.77,7.42h-1.25l4-7.7h-4.51v-1.03h5.54v1.31Z"/><path class="cls-3" d="M65.88,75.04h-1.4v-1.67h1.4v1.67Z"/><path class="cls-3" d="M73.02,75.04h-5.38v-1.22c.39-.37,.75-.72,1.1-1.05s.68-.69,1.01-1.05c.66-.73,1.12-1.32,1.36-1.75s.36-.89,.36-1.36c0-.24-.04-.46-.11-.64s-.18-.34-.31-.46c-.14-.12-.29-.21-.47-.26s-.38-.09-.59-.09-.42,.03-.63,.08-.42,.12-.61,.2c-.16,.07-.32,.15-.47,.24s-.28,.17-.37,.24h-.06v-1.24c.24-.12,.58-.24,1.01-.35s.84-.17,1.23-.17c.81,0,1.45,.22,1.91,.65s.69,1.02,.69,1.75c0,.34-.04,.65-.12,.94s-.19,.56-.33,.8c-.14,.25-.32,.51-.52,.76s-.42,.5-.64,.74c-.37,.4-.78,.81-1.23,1.24s-.81,.77-1.08,1.02h4.29v1Z"/></g></svg>