<svg xmlns:xlink="http://www.w3.org/1999/xlink" xmlns="http://www.w3.org/2000/svg" width="95" height="136"><g fill="none" fill-rule="evenodd"><path d="M11 4.5A5.5 5.5 0 0 0 5.5 10v116a5.5 5.5 0 0 0 5.5 5.5h74a5.5 5.5 0 0 0 5.5-5.5V10A5.5 5.5 0 0 0 85 4.5H11z" fill="#FFF" stroke="#000"/><path d="M11.03 7A3.018 3.018 0 0 0 8 10.02v115.96a3.018 3.018 0 0 0 3.03 3.02h73.94a3.018 3.018 0 0 0 3.03-3.02V10.02A3.018 3.018 0 0 0 84.97 7H11.03zm7.508 19h58.924C80.53 26 83 28.435 83 31.46v58.08c0 3.025-2.47 5.46-5.538 5.46H18.538C15.47 95 13 92.565 13 89.54V31.46c0-3.025 2.47-5.46 5.538-5.46zm14.95 90.317c-.386.008-.702.179-.946.517-.245.338-.371.796-.38 1.37.009.574.135 1.029.38 1.367.244.338.56.513.947.52.386-.007.702-.182.947-.52.244-.338.37-.793.378-1.367-.008-.574-.134-1.032-.378-1.37-.245-.338-.56-.51-.947-.517zm22.898 0c-.386.008-.702.179-.947.517-.244.338-.37.796-.378 1.37.007.574.134 1.029.378 1.367.245.338.56.513.947.52.387-.007.703-.182.947-.52.245-.338.371-.793.38-1.367-.009-.574-.135-1.032-.38-1.37-.244-.338-.56-.51-.947-.517zm-5.765.094c-.274.004-.53.092-.761.26-.232.17-.419.397-.565.684v1.982c.15.238.345.423.588.555.242.131.488.198.738.2.342-.008.63-.183.864-.521.235-.338.357-.793.367-1.367-.01-.57-.132-1.01-.367-1.321-.235-.31-.522-.468-.864-.472zm16.943 2.076v1.321h1.42a.651.651 0 0 0 .474-.215.672.672 0 0 0 .19-.445.672.672 0 0 0-.19-.446.651.651 0 0 0-.473-.215h-1.42z" fill="#0D69E1" fill-rule="nonzero"/><g fill="#000" fill-rule="nonzero"><path d="M23.633 64.152a3.152 3.152 0 0 1 0-6.304h48.506a3.152 3.152 0 1 1 0 6.304H23.633zM25.568 45.56h4.84v.957h-1.9v5.476h-1.036v-5.476h-1.904zM33.783 47.043l-.812 2.708h1.65l-.838-2.708zm-.65-1.483h1.29l2.072 6.433h-1.224l-.395-1.277h-2.164l-.399 1.277H31.01l2.124-6.433zM38.225 51.993H37.1l.654-6.433h1.097l1.506 2.896 1.413-2.896h1.132l.649 6.433H42.42l-.44-4.809-1.622 3.523-1.686-3.536zM45.304 48.781c0 .635.137 1.177.412 1.626.275.45.61.674 1.005.674.39 0 .723-.225 1-.674.278-.449.417-.99.417-1.626 0-.635-.139-1.178-.417-1.63-.277-.452-.61-.678-1-.678-.395 0-.73.226-1.005.678-.275.452-.412.995-.412 1.63zm-1.146-.004c0-.93.25-1.723.748-2.379.5-.655 1.1-.983 1.802-.983.708 0 1.311.328 1.81.983.499.656.748 1.449.748 2.379 0 .924-.25 1.714-.748 2.37-.499.655-1.102.982-1.81.982-.702 0-1.303-.327-1.802-.982-.498-.656-.748-1.446-.748-2.37zM51.25 52.011l-1.387-.048c.097-.05.393-.482.887-1.295.617-1.012.94-1.539.97-1.58.257-.371.59-.59 1-.653-.178-.036-.37-.186-.575-.452l-.895-1.146c-.111-.146-.23-.238-.36-.276a2.549 2.549 0 0 0-.452-.062l.33-1.092c.482.026.914.254 1.294.684.287.392.57.784.851 1.176.32.427.648.648.988.663v-2.37h1.101v2.37c.345-.015.679-.234 1-.658l.852-1.18c.38-.43.812-.659 1.295-.685l.324 1.092c-.24.02-.39.041-.452.062-.123.038-.241.13-.355.276l-.89 1.146c-.112.14-.196.235-.251.285a.694.694 0 0 1-.334.167c.413.064.748.282 1.005.653.03.041.353.568.97 1.58.495.813.791 1.245.891 1.295l-1.391.048c-.103-.108-.326-.477-.672-1.106l-.675-1.224c-.173-.281-.351-.468-.536-.562-.17-.088-.43-.136-.78-.145l.017 3.015H53.9v-3.015c-.344.012-.6.06-.767.145-.187.094-.366.281-.536.562a43.694 43.694 0 0 1-1.347 2.33zM63.235 45.56h1.062v6.442h-1.062V49.05h-2.51v2.953h-1.066V45.56h1.066v2.541h2.51zM67.725 46.534c-.301 0-.537.094-.707.281-.155.173-.232.404-.232.694 0 .286.11.518.331.695.221.177.517.266.889.266h1.057v-1.936h-1.338zm2.48-.974v6.433h-1.142v-2.606h-.904c-.324 0-.594.186-.807.557-.345.682-.69 1.365-1.031 2.05h-1.43c.195-.182.365-.403.508-.663l.961-1.725c.179-.322.385-.512.619-.57-.234-.041-.487-.215-.76-.522-.3-.346-.451-.697-.451-1.054 0-.553.183-1.007.548-1.364.366-.357.835-.536 1.409-.536h2.48z"/><g><path d="M30.21 73.228c0-.925.249-1.714.746-2.368.497-.654 1.095-.98 1.795-.98.517 0 .99.188 1.417.565.416.363.723.844.922 1.444l-1.036.435c-.108-.416-.279-.75-.511-1.005-.233-.255-.494-.382-.784-.382-.389 0-.72.224-.996.671-.275.448-.412.99-.412 1.624 0 .635.137 1.177.412 1.626.275.449.607.673.996.673.281 0 .537-.121.766-.364.23-.243.403-.564.52-.965l1.031.395c-.198.594-.506 1.069-.921 1.426-.421.368-.89.553-1.404.553-.7 0-1.298-.327-1.795-.981-.497-.654-.746-1.443-.746-2.367zM38.413 76.545c.561 0 1.069-.16 1.522-.483.5-.374.75-.898.75-1.57v-4.485h-1.07v4.484c0 .334-.132.615-.395.843a1.324 1.324 0 0 1-.834.268c-.322 0-.602-.08-.842-.242-.281-.196-.422-.485-.422-.869v-4.484h-1.075v4.484c0 .647.26 1.166.781 1.558.46.33.988.496 1.585.496zM42.42 74.733l.834.592c.272.126.63.189 1.075.189.304 0 .54-.095.709-.283a.967.967 0 0 0 .252-.665.84.84 0 0 0-.125-.452.655.655 0 0 0-.353-.28l-1.264-.326c-.483-.16-.833-.338-1.049-.53-.313-.296-.47-.684-.47-1.164 0-.523.228-.97.683-1.34.455-.37.94-.555 1.455-.555.511 0 .951.067 1.318.202.367.134.724.357 1.069.667l-.746.697-.465-.355c-.237-.176-.57-.263-1.001-.263-.31 0-.586.1-.827.302-.242.202-.362.409-.362.62l.026.162.066.14c.067.094.16.178.276.254l1.607.492c.53.21.865.37 1.009.478.322.255.483.638.483 1.15 0 .556-.245 1.044-.733 1.466-.457.403-.972.605-1.545.605-.506 0-.981-.096-1.426-.29-.372-.166-.797-.435-1.277-.807l.781-.706zM47.581 70.007h4.841v.957h-1.9v5.476h-1.036v-5.476h-1.905zM54.53 73.228c0 .634.137 1.176.412 1.625.275.45.61.674 1.005.674.389 0 .722-.225 1-.674.278-.449.417-.99.417-1.625s-.139-1.179-.417-1.63c-.278-.453-.611-.679-1-.679-.395 0-.73.226-1.005.678-.275.452-.413.996-.413 1.63zm-1.146-.005c0-.93.25-1.723.748-2.378.499-.656 1.1-.983 1.801-.983.708 0 1.312.327 1.81.983.5.655.749 1.448.749 2.378 0 .925-.25 1.714-.748 2.37-.5.655-1.103.983-1.81.983-.703 0-1.303-.328-1.802-.983-.499-.656-.748-1.445-.748-2.37zM64.311 70.007h1.251v6.433H64.43v-4.634l-1.93 3.362-1.919-3.362v4.634H59.45v-6.433H60.7l1.8 3.089z"/></g></g><path d="M23.316 102.114h-2.398V109h-.913v-6.886h-2.398v-.814h5.709v.814zm-.253 1.793c.279-.169.603-.293.974-.374a5.44 5.44 0 0 1 1.16-.121c.381 0 .687.051.919.154.23.103.406.236.527.401.122.166.202.347.242.545.04.198.061.396.061.594 0 .44-.011.869-.033 1.287-.022.418-.033.814-.033 1.188 0 .271.011.528.033.77.022.242.062.466.121.671h-.649l-.231-.77h-.055a1.83 1.83 0 0 1-.247.303 1.587 1.587 0 0 1-.358.263 2.258 2.258 0 0 1-1.111.27c-.235 0-.453-.037-.654-.11a1.466 1.466 0 0 1-.869-.803 1.589 1.589 0 0 1-.127-.649c0-.323.066-.592.198-.808.132-.217.317-.39.555-.517.239-.129.525-.22.858-.275a6.822 6.822 0 0 1 1.106-.083h.303c.099 0 .2.007.302.022.022-.22.033-.418.033-.594 0-.403-.08-.686-.242-.847-.161-.161-.455-.242-.88-.242-.125 0-.258.01-.402.028-.143.018-.29.044-.44.077-.15.032-.293.073-.428.12-.136.048-.255.101-.358.16l-.275-.66zm1.562 4.411a1.7 1.7 0 0 0 .55-.082c.161-.056.3-.125.418-.21a1.331 1.331 0 0 0 .462-.577v-.913a8.525 8.525 0 0 0-.627-.022c-.227 0-.45.013-.666.038a2.107 2.107 0 0 0-.572.143c-.165.07-.296.165-.396.287a.697.697 0 0 0-.148.456c0 .257.092.467.275.632.183.166.418.248.704.248zm8.525-2.585l.066-1.045h-.055l-.396.847-1.331 2.156h-.308l-1.386-2.156-.363-.847h-.044l.088 1.034V109h-.814v-5.5h.869l1.54 2.464.319.638h.022l.33-.66 1.441-2.442h.88v5.5h-.858v-3.267zm2.244.517c0-.931.207-1.644.622-2.14.414-.495 1.01-.742 1.787-.742.41 0 .768.068 1.073.204.304.135.555.33.753.582.198.254.345.558.44.913.095.356.143.75.143 1.183 0 .931-.207 1.644-.622 2.14-.414.495-1.01.742-1.787.742-.41 0-.768-.068-1.072-.204a1.946 1.946 0 0 1-.754-.582 2.52 2.52 0 0 1-.44-.913 4.564 4.564 0 0 1-.143-1.183zm.913 0c0 .279.027.546.082.803.056.257.142.48.259.671.117.19.271.345.462.462.19.117.422.176.693.176.997.007 1.496-.697 1.496-2.112 0-.286-.027-.557-.082-.814a2.117 2.117 0 0 0-.259-.671 1.343 1.343 0 0 0-.462-.457 1.33 1.33 0 0 0-.693-.17c-.997-.007-1.496.697-1.496 2.112zm7.018.319L41.708 109h-1.012l1.738-2.519.374-.33-.561-.418-1.43-2.233h.935l1.518 2.376h.572V103.5h.858v2.486l.517-.154 1.529-2.332h.924l-1.496 2.233-.429.352.561.44L47.934 109h-1.045l-1.617-2.475H44.7V109h-.858v-2.585l-.517.154zm9.394 1.991c-.22.176-.497.315-.83.418a3.59 3.59 0 0 1-1.062.154c-.418 0-.781-.068-1.089-.204a1.937 1.937 0 0 1-.759-.582 2.524 2.524 0 0 1-.44-.908 4.548 4.548 0 0 1-.143-1.188c0-.939.209-1.654.627-2.145.418-.491 1.016-.737 1.793-.737.25 0 .499.028.748.083.25.055.473.159.671.313.198.154.36.372.484.654.125.283.187.655.187 1.117 0 .242-.022.51-.066.803h-3.531c0 .323.033.609.099.858.066.25.169.46.308.633.14.172.32.304.544.396.224.091.497.137.82.137.25 0 .499-.044.748-.132.25-.088.436-.19.561-.308l.33.638zm-1.892-4.422c-.433 0-.78.114-1.04.341-.26.227-.416.616-.467 1.166h2.728c0-.557-.106-.948-.319-1.171-.213-.224-.513-.336-.902-.336zm6.831 2.431h-2.486V109h-.88v-5.5h.88v2.299h2.486V103.5h.88v5.5h-.88v-2.431zm5.94 0h-2.486V109h-.88v-5.5h.88v2.299h2.486V103.5h.88v5.5h-.88v-2.431zm3.454 1.661c.271.044.532.066.781.066.462 0 .785-.09.968-.27.183-.18.275-.434.275-.764 0-.293-.09-.535-.27-.726-.18-.19-.493-.286-.94-.286-.125 0-.26.004-.407.011a1.75 1.75 0 0 0-.407.066v1.903zm0-2.629c.176-.03.345-.05.506-.06.161-.011.315-.017.462-.017.374 0 .687.042.94.126.254.085.457.2.611.347a1.2 1.2 0 0 1 .325.522c.062.202.093.417.093.644 0 .667-.185 1.151-.556 1.452-.37.3-.97.451-1.798.451-.47 0-.957-.022-1.463-.066v-5.5h.88v2.101zm3.806-2.101h.88v5.5h-.88v-5.5zm6.006 2.244l.033-.682h-.033l-.451.704L73.938 109h-.506v-5.5h.88v3.355l-.033.649h.044l.429-.682 2.475-3.322h.517v5.5h-.88v-3.256zm-2.167-4.466c.073.337.2.572.38.704s.386.198.621.198.444-.07.627-.209c.183-.14.308-.367.374-.682l.66.209c-.066.425-.255.752-.566.979-.312.227-.684.341-1.117.341-.198 0-.394-.026-.588-.077a1.73 1.73 0 0 1-.523-.231 1.414 1.414 0 0 1-.616-.968l.748-.264zm-46.343 16.247h-.506V120h-.88v-5.5h.88v2.486l.473-.154 1.76-2.332h.957l-1.705 2.211-.462.363.572.44L31.28 120h-1.089l-1.837-2.475zm3.443-.275c0-.931.207-1.644.622-2.14.414-.495 1.01-.742 1.787-.742.41 0 .768.068 1.072.204.305.135.556.33.754.582.198.254.345.558.44.913.095.356.143.75.143 1.183 0 .931-.207 1.644-.622 2.14-.414.495-1.01.742-1.787.742-.41 0-.768-.068-1.073-.204a1.946 1.946 0 0 1-.753-.582 2.52 2.52 0 0 1-.44-.913 4.564 4.564 0 0 1-.143-1.183zm.913 0c0 .279.027.546.082.803.056.257.142.48.259.671.117.19.271.345.462.462.19.117.422.176.693.176.997.007 1.496-.697 1.496-2.112 0-.286-.027-.557-.082-.814a2.117 2.117 0 0 0-.259-.671 1.343 1.343 0 0 0-.462-.457 1.33 1.33 0 0 0-.693-.17c-.997-.007-1.496.697-1.496 2.112zm8.657.319h-2.486V120h-.88v-5.5h.88v2.299h2.486V114.5h.88v5.5h-.88v-2.431zm6.072-2.299h-1.716V120h-.88v-4.73h-1.716v-.77h4.312v.77zm.869-.77h.605l.165.66h.044c.169-.257.387-.453.654-.588.268-.136.574-.204.919-.204.733 0 1.28.216 1.639.649.36.433.539 1.14.539 2.123 0 .462-.06.878-.181 1.248-.122.37-.292.684-.512.941-.22.257-.486.455-.797.594-.312.14-.659.209-1.04.209-.271 0-.486-.017-.644-.05a2.61 2.61 0 0 1-.511-.17v2.288h-.88v-7.7zm2.222.638c-.374 0-.67.097-.886.291-.216.195-.368.49-.456.886v2.728c.132.103.282.181.451.236.169.056.392.083.671.083.506 0 .907-.189 1.204-.566.298-.378.446-.934.446-1.667 0-.3-.026-.574-.077-.82a1.795 1.795 0 0 0-.248-.626 1.186 1.186 0 0 0-.44-.402 1.407 1.407 0 0 0-.665-.143zm3.421 2.112c0-.931.207-1.644.621-2.14.415-.495 1.01-.742 1.788-.742.41 0 .768.068 1.072.204.305.135.556.33.754.582.198.254.345.558.44.913.095.356.143.75.143 1.183 0 .931-.207 1.644-.621 2.14-.415.495-1.01.742-1.788.742-.41 0-.768-.068-1.072-.204a1.946 1.946 0 0 1-.754-.582 2.52 2.52 0 0 1-.44-.913 4.564 4.564 0 0 1-.143-1.183zm.913 0c0 .279.027.546.083.803.055.257.14.48.258.671.117.19.271.345.462.462.19.117.422.176.693.176.997.007 1.496-.697 1.496-2.112 0-.286-.027-.557-.083-.814a2.117 2.117 0 0 0-.258-.671 1.343 1.343 0 0 0-.462-.457 1.33 1.33 0 0 0-.693-.17c-.997-.007-1.496.697-1.496 2.112zm8.184-1.98h-1.595c-.022.308-.044.64-.066.996-.022.355-.055.71-.099 1.066-.044.356-.103.697-.176 1.024a4.422 4.422 0 0 1-.28.863c-.114.25-.253.45-.419.6a.844.844 0 0 1-.588.225c-.14 0-.26-.007-.363-.022a1.006 1.006 0 0 1-.275-.077l.132-.737a.9.9 0 0 0 .286.044.533.533 0 0 0 .396-.187c.117-.125.22-.361.308-.71.088-.348.161-.83.22-1.446a34.56 34.56 0 0 0 .121-2.409h3.278v5.5h-.88v-4.73zm3.454 3.96c.271.044.532.066.781.066.462 0 .803-.09 1.023-.27.22-.18.33-.434.33-.764a.932.932 0 0 0-.319-.726c-.213-.19-.546-.286-1.001-.286-.125 0-.26.004-.407.011a1.75 1.75 0 0 0-.407.066v1.903zm0-2.629c.176-.03.345-.05.506-.06.161-.011.315-.017.462-.017.381 0 .704.042.968.126.264.085.478.2.644.347.165.147.284.32.357.522.073.202.11.417.11.644 0 .667-.2 1.151-.6 1.452-.4.3-1.02.451-1.864.451-.47 0-.957-.022-1.463-.066v-5.5h.88v2.101z" stroke="#FFF" stroke-width=".1" fill="#FFF"/></g></svg>